<svg width="21" height="15" viewBox="0 0 21 15" fill="none" xmlns="http://www.w3.org/2000/svg">
    <path
        d="M12.401 4.47902C5.18453 4.47902 1.59849 10.0302 0.0885808 13.4608C0.0296498 13.5817 0.0148285 13.7195 0.0466776 13.8502C0.0785267 13.981 0.155045 14.0965 0.263012 14.1768C0.370978 14.2571 0.503609 14.2972 0.637986 14.2901C0.772363 14.283 0.900045 14.2292 0.998968 14.138C4.11533 11.2618 8.16247 9.60271 12.401 9.46394V12.5726C12.4017 12.6829 12.434 12.7906 12.4941 12.8831C12.5541 12.9756 12.6394 13.049 12.7399 13.0945C12.8403 13.1401 12.9517 13.1559 13.0609 13.1401C13.17 13.1244 13.2724 13.0777 13.3558 13.0056L19.8284 7.37671C19.8917 7.32251 19.9425 7.25525 19.9774 7.17955C20.0122 7.10385 20.0303 7.0215 20.0303 6.93817C20.0303 6.85484 20.0122 6.77249 19.9774 6.69679C19.9425 6.62109 19.8917 6.55383 19.8284 6.49963L13.3447 0.93739C13.2613 0.865278 13.1589 0.818575 13.0498 0.802807C12.9406 0.787038 12.8292 0.802865 12.7288 0.848414C12.6283 0.893962 12.543 0.967326 12.483 1.05983C12.4229 1.15233 12.3906 1.2601 12.3899 1.37038L12.401 4.47902Z"
        fill="url(#paint0_linear)" />
    <defs>
        <linearGradient id="paint0_linear" x1="18.0303" y1="13.2789" x2="6.83527" y2="-2.36553"
            gradientUnits="userSpaceOnUse">
            <stop stopColor="#262626" />
            <stop offset="1" stopColor="#707580" />
        </linearGradient>
    </defs>
</svg>